<svg xmlns="http://www.w3.org/2000/svg" width="240" height="180" viewBox="0 0 240 180" shape-rendering="crispEdges">
  <defs>
    <pattern id="g" width="16" height="16" patternUnits="userSpaceOnUse">
      <path d="M16 0H0V16" fill="none" stroke="#272a4d" stroke-opacity="0.35" stroke-width="1"/>
    </pattern>
    <radialGradient id="halo" cx="50%" cy="42%" r="55%">
      <stop offset="0%" stop-color="#ff2e97" stop-opacity="0.22"/>
      <stop offset="100%" stop-color="#ff2e97" stop-opacity="0"/>
    </radialGradient>
    <filter id="glow" x="-30%" y="-30%" width="160%" height="160%">
      <feGaussianBlur stdDeviation="3" result="b"/>
      <feMerge><feMergeNode in="b"/><feMergeNode in="SourceGraphic"/></feMerge>
    </filter>
  </defs>
  <rect width="240" height="180" fill="#0d0e1a"/>
  <rect width="240" height="180" fill="url(#g)"/>
  <rect width="240" height="180" fill="url(#halo)"/>
  <g opacity="0.25" fill="#451228">
    <rect x="69" y="21" width="17" height="17" fill="#451228"/>
    <rect x="87" y="21" width="17" height="17" fill="#451228"/>
    <rect x="141" y="21" width="17" height="17" fill="#451228"/>
    <rect x="159" y="21" width="17" height="17" fill="#451228"/>
    <rect x="51" y="39" width="17" height="17" fill="#451228"/>
    <rect x="69" y="39" width="17" height="17" fill="#451228"/>
    <rect x="87" y="39" width="17" height="17" fill="#451228"/>
    <rect x="105" y="39" width="17" height="17" fill="#451228"/>
    <rect x="123" y="39" width="17" height="17" fill="#451228"/>
    <rect x="141" y="39" width="17" height="17" fill="#451228"/>
    <rect x="159" y="39" width="17" height="17" fill="#451228"/>
    <rect x="177" y="39" width="17" height="17" fill="#451228"/>
    <rect x="51" y="57" width="17" height="17" fill="#451228"/>
    <rect x="69" y="57" width="17" height="17" fill="#451228"/>
    <rect x="87" y="57" width="17" height="17" fill="#451228"/>
    <rect x="105" y="57" width="17" height="17" fill="#451228"/>
    <rect x="123" y="57" width="17" height="17" fill="#451228"/>
    <rect x="141" y="57" width="17" height="17" fill="#451228"/>
    <rect x="159" y="57" width="17" height="17" fill="#451228"/>
    <rect x="177" y="57" width="17" height="17" fill="#451228"/>
    <rect x="51" y="75" width="17" height="17" fill="#451228"/>
    <rect x="69" y="75" width="17" height="17" fill="#451228"/>
    <rect x="87" y="75" width="17" height="17" fill="#451228"/>
    <rect x="105" y="75" width="17" height="17" fill="#451228"/>
    <rect x="123" y="75" width="17" height="17" fill="#451228"/>
    <rect x="141" y="75" width="17" height="17" fill="#451228"/>
    <rect x="159" y="75" width="17" height="17" fill="#451228"/>
    <rect x="177" y="75" width="17" height="17" fill="#451228"/>
    <rect x="69" y="93" width="17" height="17" fill="#451228"/>
    <rect x="87" y="93" width="17" height="17" fill="#451228"/>
    <rect x="105" y="93" width="17" height="17" fill="#451228"/>
    <rect x="123" y="93" width="17" height="17" fill="#451228"/>
    <rect x="141" y="93" width="17" height="17" fill="#451228"/>
    <rect x="159" y="93" width="17" height="17" fill="#451228"/>
    <rect x="87" y="111" width="17" height="17" fill="#451228"/>
    <rect x="105" y="111" width="17" height="17" fill="#451228"/>
    <rect x="123" y="111" width="17" height="17" fill="#451228"/>
    <rect x="141" y="111" width="17" height="17" fill="#451228"/>
    <rect x="105" y="129" width="17" height="17" fill="#451228"/>
    <rect x="123" y="129" width="17" height="17" fill="#451228"/>
  </g>
  <g filter="url(#glow)">
    <rect x="66" y="18" width="17" height="17" fill="#ff2e97"/>
    <rect x="84" y="18" width="17" height="17" fill="#ff2e97"/>
    <rect x="138" y="18" width="17" height="17" fill="#ff2e97"/>
    <rect x="156" y="18" width="17" height="17" fill="#ff2e97"/>
    <rect x="48" y="36" width="17" height="17" fill="#ff2e97"/>
    <rect x="66" y="36" width="17" height="17" fill="#ff2e97"/>
    <rect x="84" y="36" width="17" height="17" fill="#ff2e97"/>
    <rect x="102" y="36" width="17" height="17" fill="#ff2e97"/>
    <rect x="120" y="36" width="17" height="17" fill="#ff2e97"/>
    <rect x="138" y="36" width="17" height="17" fill="#ff2e97"/>
    <rect x="156" y="36" width="17" height="17" fill="#ff2e97"/>
    <rect x="174" y="36" width="17" height="17" fill="#ff2e97"/>
    <rect x="48" y="54" width="17" height="17" fill="#ff2e97"/>
    <rect x="66" y="54" width="17" height="17" fill="#ff2e97"/>
    <rect x="84" y="54" width="17" height="17" fill="#ff2e97"/>
    <rect x="102" y="54" width="17" height="17" fill="#ff2e97"/>
    <rect x="120" y="54" width="17" height="17" fill="#ff2e97"/>
    <rect x="138" y="54" width="17" height="17" fill="#ff2e97"/>
    <rect x="156" y="54" width="17" height="17" fill="#ff2e97"/>
    <rect x="174" y="54" width="17" height="17" fill="#ff2e97"/>
    <rect x="48" y="72" width="17" height="17" fill="#ff2e97"/>
    <rect x="66" y="72" width="17" height="17" fill="#ff2e97"/>
    <rect x="84" y="72" width="17" height="17" fill="#ff2e97"/>
    <rect x="102" y="72" width="17" height="17" fill="#ff2e97"/>
    <rect x="120" y="72" width="17" height="17" fill="#ff2e97"/>
    <rect x="138" y="72" width="17" height="17" fill="#ff2e97"/>
    <rect x="156" y="72" width="17" height="17" fill="#ff2e97"/>
    <rect x="174" y="72" width="17" height="17" fill="#ff2e97"/>
    <rect x="66" y="90" width="17" height="17" fill="#ff2e97"/>
    <rect x="84" y="90" width="17" height="17" fill="#ff2e97"/>
    <rect x="102" y="90" width="17" height="17" fill="#ff2e97"/>
    <rect x="120" y="90" width="17" height="17" fill="#ff2e97"/>
    <rect x="138" y="90" width="17" height="17" fill="#ff2e97"/>
    <rect x="156" y="90" width="17" height="17" fill="#ff2e97"/>
    <rect x="84" y="108" width="17" height="17" fill="#ff2e97"/>
    <rect x="102" y="108" width="17" height="17" fill="#ff2e97"/>
    <rect x="120" y="108" width="17" height="17" fill="#ff2e97"/>
    <rect x="138" y="108" width="17" height="17" fill="#ff2e97"/>
    <rect x="102" y="126" width="17" height="17" fill="#ff2e97"/>
    <rect x="120" y="126" width="17" height="17" fill="#ff2e97"/>
  </g>
  <rect x="20" y="28" width="4" height="4" fill="#ff2e97" opacity="0.8"/><rect x="210" y="40" width="4" height="4" fill="#ff2e97" opacity="0.8"/><rect x="38" y="150" width="4" height="4" fill="#ff2e97" opacity="0.8"/><rect x="200" y="142" width="4" height="4" fill="#ff2e97" opacity="0.8"/><rect x="120" y="18" width="4" height="4" fill="#ff2e97" opacity="0.8"/><rect x="16" y="96" width="4" height="4" fill="#ff2e97" opacity="0.8"/><rect x="224" y="96" width="4" height="4" fill="#ff2e97" opacity="0.8"/>
</svg>
